<svg xmlns="http://www.w3.org/2000/svg" viewBox="1782.690 246.173 211.587 711.294" role="img" aria-label="葉の装飾">
<g fill="#cfa45e">
  <path d="M 1841.070312 317.5 C 1840.480469 317.679688 1839.980469 318.089844 1839.691406 318.640625 C 1839.398438 319.191406 1839.339844 319.828125 1839.519531 320.429688 C 1899.609375 516.648438 1918.96875 718.46875 1934.238281 947.289062 C 1934.328125 948.578125 1935.441406 949.550781 1936.71875 949.460938 C 1938.011719 949.378906 1938.980469 948.269531 1938.890625 946.980469 C 1923.609375 718.078125 1904.230469 515.859375 1843.96875 319.050781 C 1843.589844 317.828125 1842.300781 317.128906 1841.070312 317.5 "/>
  <path d="M 1983.011719 725.621094 C 1982.398438 725.429688 1981.738281 725.511719 1981.191406 725.820312 C 1962.921875 736.230469 1944.671875 753.289062 1923.941406 805.28125 C 1923.609375 806.101562 1923.769531 807.039062 1924.351562 807.699219 C 1924.941406 808.371094 1925.839844 808.640625 1926.699219 808.421875 C 1948.921875 802.46875 1965.328125 786.46875 1975.230469 769.941406 C 1980.179688 761.679688 1983.539062 753.261719 1985.148438 745.769531 C 1986.761719 738.269531 1986.75 731.660156 1984.429688 726.820312 C 1984.140625 726.238281 1983.628906 725.808594 1983.011719 725.621094 Z M 1980.289062 732.640625 C 1981 735.96875 1981.699219 739.539062 1980.570312 744.800781 C 1979.078125 751.699219 1975.941406 759.679688 1971.230469 767.53125 C 1962.878906 781.46875 1948.988281 793.929688 1931.621094 800.671875 C 1949.359375 758.949219 1964.859375 742.148438 1980.289062 732.640625 "/>
  <path d="M 1927.078125 406.289062 C 1922.480469 405.859375 1917.109375 407.589844 1911.480469 410.699219 C 1905.839844 413.820312 1900 418.390625 1894.738281 424.101562 C 1884.21875 435.511719 1876.078125 451.511719 1878.339844 468.949219 C 1878.449219 469.789062 1879 470.5 1879.789062 470.820312 C 1880.578125 471.128906 1881.46875 471 1882.128906 470.460938 C 1916.949219 441.839844 1925.980469 424.769531 1929.140625 409.078125 C 1929.28125 408.429688 1929.128906 407.761719 1928.730469 407.230469 C 1928.339844 406.691406 1927.738281 406.359375 1927.078125 406.289062 Z M 1922.808594 412.078125 C 1919.46875 424.789062 1910.191406 439.5 1883.820312 462.191406 C 1884.179688 448.96875 1889.640625 436.488281 1898.148438 427.269531 C 1903.070312 421.921875 1908.621094 417.601562 1913.75 414.769531 C 1917.359375 412.769531 1920.050781 412.53125 1922.808594 412.078125 "/>
  <path d="M 1936.101562 454.101562 C 1928.53125 456.808594 1920.878906 460.960938 1912.921875 469.21875 C 1904.960938 477.480469 1896.628906 489.808594 1887.300781 509.039062 C 1886.929688 509.769531 1886.980469 510.648438 1887.421875 511.339844 C 1887.871094 512.039062 1888.640625 512.441406 1889.46875 512.410156 C 1908 512.03125 1922.101562 501.761719 1930.660156 489.78125 C 1939.21875 477.800781 1942.738281 464.179688 1939.03125 455.410156 C 1938.558594 454.269531 1937.269531 453.691406 1936.101562 454.101562 Z M 1933.761719 461.089844 C 1934.808594 467.691406 1933.738281 477.449219 1926.871094 487.058594 C 1919.929688 496.789062 1908.621094 504.121094 1894.628906 506.210938 C 1902.429688 491.171875 1909.730469 479.230469 1916.261719 472.460938 C 1922.359375 466.128906 1928.019531 463.589844 1933.761719 461.089844 "/>
  <path d="M 1829.191406 441.671875 C 1822.441406 440.539062 1816.550781 440.78125 1812.28125 443.109375 C 1811.699219 443.429688 1811.289062 443.96875 1811.128906 444.601562 C 1810.96875 445.238281 1811.089844 445.910156 1811.449219 446.449219 C 1821.628906 461.960938 1837.109375 476.851562 1883.820312 493.808594 C 1884.640625 494.109375 1885.570312 493.921875 1886.210938 493.320312 C 1886.851562 492.710938 1887.101562 491.800781 1886.851562 490.949219 C 1881 471.488281 1866.171875 457.558594 1851.101562 449.449219 C 1843.558594 445.390625 1835.941406 442.789062 1829.191406 441.671875 Z M 1828.429688 446.25 C 1834.578125 447.269531 1841.78125 449.71875 1848.890625 453.550781 C 1861.28125 460.21875 1872.410156 471.761719 1878.890625 486.300781 C 1842.570312 472.121094 1827.371094 459.679688 1818.308594 446.941406 C 1821.140625 446.28125 1823.960938 445.5 1828.429688 446.25 "/>
  <path d="M 1958.769531 493.160156 C 1953.660156 492.691406 1947.398438 494.539062 1940.609375 497.910156 C 1933.828125 501.289062 1926.558594 506.269531 1919.839844 512.480469 C 1906.410156 524.910156 1895.078125 542.320312 1895.289062 561.53125 C 1895.308594 562.378906 1895.789062 563.148438 1896.539062 563.539062 C 1897.289062 563.941406 1898.191406 563.890625 1898.898438 563.421875 C 1921.339844 548.460938 1936.679688 537.769531 1946.570312 527.640625 C 1956.46875 517.511719 1960.859375 507.691406 1960.871094 495.5 C 1960.878906 494.289062 1959.96875 493.28125 1958.769531 493.160156 Z M 1954.738281 498.769531 C 1953.980469 508.089844 1951.53125 515.910156 1943.230469 524.398438 C 1934.910156 532.910156 1920.019531 543.171875 1901.519531 555.640625 C 1903.460938 540.589844 1911.71875 526.339844 1923.011719 515.890625 C 1929.410156 509.96875 1936.390625 505.230469 1942.71875 502.078125 C 1947.589844 499.660156 1951.289062 499.148438 1954.738281 498.769531 "/>
  <path d="M 1830.089844 487.921875 C 1822.5 486.800781 1815.929688 487.261719 1811.28125 489.960938 C 1810.730469 490.28125 1810.328125 490.820312 1810.191406 491.449219 C 1810.039062 492.070312 1810.171875 492.730469 1810.519531 493.261719 C 1822.230469 510.75 1840.179688 527.421875 1892.941406 545.578125 C 1893.769531 545.851562 1894.679688 545.640625 1895.300781 545.03125 C 1895.929688 544.429688 1896.160156 543.519531 1895.910156 542.691406 C 1888.871094 520.710938 1871.949219 505.179688 1854.851562 496.289062 C 1846.300781 491.851562 1837.671875 489.050781 1830.089844 487.921875 Z M 1829.398438 492.539062 C 1836.371094 493.570312 1844.558594 496.199219 1852.679688 500.429688 C 1867.089844 507.910156 1880.269531 521.121094 1887.878906 538.140625 C 1845.5 522.53125 1827.910156 508.351562 1817.339844 493.640625 C 1820.589844 492.699219 1824.070312 491.75 1829.398438 492.539062 "/>
  <path d="M 1976.019531 542.339844 C 1970.960938 540.46875 1964.359375 541.21875 1957.039062 543.71875 C 1949.730469 546.21875 1941.699219 550.589844 1934.039062 556.570312 C 1918.710938 568.519531 1904.851562 586.980469 1902.308594 609.960938 C 1902.21875 610.828125 1902.621094 611.679688 1903.359375 612.160156 C 1904.089844 612.640625 1905.03125 612.660156 1905.789062 612.230469 C 1953.859375 583.890625 1968.78125 564.738281 1977.328125 545.480469 C 1977.589844 544.890625 1977.601562 544.21875 1977.351562 543.628906 C 1977.109375 543.03125 1976.621094 542.570312 1976.019531 542.339844 Z M 1970.679688 547.058594 C 1962.769531 563.328125 1947.800781 580.238281 1909.269531 603.960938 C 1913.398438 585.789062 1923.980469 570.328125 1936.890625 560.25 C 1944.171875 554.578125 1951.828125 550.46875 1958.558594 548.160156 C 1963.710938 546.410156 1967.320312 546.710938 1970.679688 547.058594 "/>
  <path d="M 1836.839844 539.800781 C 1829.269531 538.691406 1822.691406 539.128906 1818.03125 541.789062 C 1817.46875 542.109375 1817.070312 542.648438 1816.921875 543.269531 C 1816.769531 543.898438 1816.890625 544.558594 1817.238281 545.101562 C 1828.820312 562.679688 1847.019531 579.808594 1900.109375 597.039062 C 1900.960938 597.320312 1901.890625 597.089844 1902.511719 596.449219 C 1903.128906 595.820312 1903.328125 594.878906 1903.039062 594.039062 C 1895.621094 572.199219 1878.628906 556.859375 1861.53125 548.058594 C 1852.980469 543.660156 1844.398438 540.898438 1836.839844 539.800781 Z M 1836.148438 544.410156 C 1843.101562 545.429688 1851.269531 548.050781 1859.398438 552.230469 C 1873.808594 559.640625 1887.101562 572.710938 1894.980469 589.628906 C 1852.289062 574.691406 1834.550781 560.300781 1824.058594 545.480469 C 1827.320312 544.539062 1830.828125 543.628906 1836.148438 544.410156 "/>
  <path d="M 1980.878906 595.25 C 1975.738281 593.660156 1969.230469 594.738281 1962.109375 597.558594 C 1954.988281 600.378906 1947.261719 605.050781 1939.960938 611.328125 C 1925.359375 623.890625 1912.449219 642.859375 1910.679688 665.890625 C 1910.609375 666.78125 1911.039062 667.628906 1911.800781 668.089844 C 1912.558594 668.550781 1913.519531 668.539062 1914.269531 668.058594 C 1961.390625 638.128906 1974.890625 617.96875 1982.390625 598.308594 C 1982.621094 597.710938 1982.589844 597.03125 1982.308594 596.449219 C 1982.019531 595.871094 1981.5 595.429688 1980.878906 595.25 Z M 1975.820312 600.238281 C 1968.808594 616.941406 1955.039062 634.609375 1917.429688 659.621094 C 1920.910156 641.308594 1930.691406 625.460938 1942.988281 614.878906 C 1949.929688 608.921875 1957.289062 604.449219 1963.828125 601.859375 C 1968.828125 599.878906 1972.441406 600.058594 1975.820312 600.238281 "/>
  <path d="M 1842.929688 598.351562 C 1835.261719 597.519531 1828.679688 598.230469 1824.128906 601.101562 C 1823.578125 601.449219 1823.199219 602 1823.078125 602.628906 C 1822.949219 603.269531 1823.101562 603.921875 1823.46875 604.449219 C 1835.839844 621.519531 1855.050781 637.410156 1908.441406 653.558594 C 1909.289062 653.808594 1910.199219 653.570312 1910.808594 652.929688 C 1911.410156 652.289062 1911.601562 651.359375 1911.300781 650.53125 C 1903.441406 628.820312 1885.761719 614.011719 1868.179688 605.789062 C 1859.390625 601.679688 1850.609375 599.179688 1842.929688 598.351562 Z M 1842.449219 603 C 1849.519531 603.769531 1857.859375 606.078125 1866.21875 609.988281 C 1881.050781 616.921875 1894.839844 629.601562 1903.109375 646.328125 C 1860.070312 632.320312 1841.519531 618.828125 1830.359375 604.550781 C 1833.589844 603.488281 1837.058594 602.410156 1842.449219 603 "/>
  <path d="M 1984.488281 649.5 C 1979.289062 648.210938 1972.871094 649.601562 1965.898438 652.730469 C 1958.921875 655.871094 1951.398438 660.871094 1944.371094 667.441406 C 1930.300781 680.578125 1918.089844 700.019531 1916.878906 723.070312 C 1916.839844 723.949219 1917.289062 724.78125 1918.058594 725.210938 C 1918.820312 725.648438 1919.761719 725.621094 1920.5 725.128906 C 1966.898438 694.039062 1979.769531 672.578125 1986.148438 652.488281 C 1986.351562 651.878906 1986.289062 651.199219 1985.980469 650.628906 C 1985.660156 650.070312 1985.128906 649.648438 1984.5 649.5 Z M 1979.671875 654.730469 C 1973.589844 671.859375 1960.449219 690.539062 1923.429688 716.589844 C 1926.421875 698.148438 1935.679688 681.921875 1947.539062 670.851562 C 1954.21875 664.609375 1961.371094 659.859375 1967.789062 656.96875 C 1972.679688 654.769531 1976.289062 654.730469 1979.671875 654.730469 "/>
  <path d="M 1853.199219 677.121094 C 1845.609375 676.121094 1839.03125 676.671875 1834.429688 679.429688 C 1833.878906 679.761719 1833.488281 680.300781 1833.351562 680.929688 C 1833.21875 681.550781 1833.339844 682.210938 1833.699219 682.730469 C 1845.628906 700.070312 1863.871094 716.628906 1917.019531 733.640625 C 1917.859375 733.910156 1918.78125 733.691406 1919.398438 733.058594 C 1920.011719 732.441406 1920.230469 731.511719 1919.949219 730.679688 C 1912.441406 708.859375 1895.25 693.671875 1878.03125 685.078125 C 1869.421875 680.78125 1860.789062 678.121094 1853.199219 677.121094 Z M 1852.578125 681.738281 C 1859.550781 682.660156 1867.75 685.160156 1875.929688 689.238281 C 1890.441406 696.480469 1903.890625 709.429688 1911.851562 726.308594 C 1869.101562 711.589844 1851.289062 697.601562 1840.519531 683.011719 C 1843.761719 682.019531 1847.25 681.03125 1852.578125 681.738281 "/>
  <path d="M 1862.078125 749.308594 C 1854.511719 748.238281 1847.960938 748.730469 1843.308594 751.410156 C 1842.75 751.730469 1842.351562 752.269531 1842.199219 752.898438 C 1842.050781 753.519531 1842.171875 754.179688 1842.519531 754.71875 C 1854.179688 772.25 1872.46875 789.269531 1925.628906 806.28125 C 1926.46875 806.550781 1927.390625 806.328125 1928.011719 805.699219 C 1928.628906 805.078125 1928.839844 804.160156 1928.558594 803.320312 C 1921.050781 781.511719 1903.949219 766.199219 1886.808594 757.480469 C 1878.238281 753.121094 1869.648438 750.390625 1862.078125 749.308594 Z M 1861.429688 753.929688 C 1868.390625 754.921875 1876.570312 757.5 1884.710938 761.640625 C 1899.160156 768.988281 1912.480469 782.03125 1920.429688 798.910156 C 1877.699219 784.148438 1859.898438 769.871094 1849.339844 755.101562 C 1852.601562 754.148438 1856.101562 753.171875 1861.429688 753.929688 "/>
  <path d="M 1918.808594 366.171875 C 1914.210938 365.730469 1908.871094 367.460938 1903.238281 370.578125 C 1897.609375 373.691406 1891.730469 378.269531 1886.46875 383.96875 C 1875.949219 395.390625 1867.808594 411.378906 1870.070312 428.820312 C 1870.191406 429.648438 1870.75 430.359375 1871.539062 430.671875 C 1872.320312 430.96875 1873.210938 430.828125 1873.859375 430.300781 C 1908.679688 401.691406 1917.710938 384.640625 1920.878906 368.960938 C 1921.011719 368.308594 1920.859375 367.628906 1920.46875 367.101562 C 1920.070312 366.570312 1919.46875 366.230469 1918.808594 366.171875 Z M 1914.578125 371.949219 C 1911.238281 384.648438 1901.921875 399.359375 1875.589844 422.03125 C 1875.949219 408.808594 1881.410156 396.359375 1889.910156 387.140625 C 1894.839844 381.800781 1900.351562 377.480469 1905.480469 374.640625 C 1909.089844 372.640625 1911.820312 372.410156 1914.578125 371.949219 "/>
  <path d="M 1815.898438 386.898438 C 1809.140625 385.78125 1803.21875 386.019531 1798.949219 388.351562 C 1798.371094 388.660156 1797.960938 389.199219 1797.800781 389.839844 C 1797.640625 390.46875 1797.761719 391.140625 1798.121094 391.691406 C 1808.300781 407.191406 1823.789062 422.078125 1870.488281 439.050781 C 1871.320312 439.351562 1872.238281 439.160156 1872.878906 438.550781 C 1873.519531 437.949219 1873.769531 437.03125 1873.519531 436.191406 C 1867.671875 416.71875 1852.878906 402.800781 1837.800781 394.691406 C 1830.261719 390.628906 1822.648438 388.019531 1815.890625 386.898438 Z M 1815.140625 391.480469 C 1821.289062 392.511719 1828.480469 394.960938 1835.601562 398.78125 C 1847.988281 405.460938 1859.109375 416.988281 1865.601562 431.539062 C 1829.25 417.351562 1814.078125 404.921875 1805.011719 392.171875 C 1807.839844 391.519531 1810.671875 390.738281 1815.140625 391.480469 "/>
  <path d="M 1898.828125 324.25 C 1894.71875 323.859375 1890.039062 325.378906 1885.089844 328.109375 C 1880.148438 330.828125 1874.988281 334.828125 1870.378906 339.820312 C 1861.160156 349.789062 1854 363.800781 1855.988281 379.078125 C 1856.089844 379.921875 1856.648438 380.640625 1857.441406 380.960938 C 1858.21875 381.269531 1859.121094 381.128906 1859.78125 380.601562 C 1890.179688 355.691406 1898.128906 340.738281 1900.898438 327.039062 C 1901.03125 326.390625 1900.878906 325.710938 1900.488281 325.179688 C 1900.101562 324.648438 1899.488281 324.308594 1898.828125 324.25 Z M 1894.558594 330.039062 C 1891.621094 340.769531 1883.511719 353.351562 1861.5 372.371094 C 1862.050781 361.261719 1866.589844 350.78125 1873.789062 342.988281 C 1878.070312 338.359375 1882.890625 334.660156 1887.328125 332.210938 C 1890.230469 330.609375 1892.300781 330.480469 1894.558594 330.039062 "/>
  <path d="M 1812.421875 346.160156 C 1806.488281 345.171875 1801.289062 345.378906 1797.46875 347.460938 C 1796.890625 347.769531 1796.460938 348.308594 1796.300781 348.941406 C 1796.140625 349.578125 1796.25 350.261719 1796.609375 350.800781 C 1805.511719 364.328125 1819.140625 377.339844 1859.910156 392.101562 C 1860.738281 392.378906 1861.648438 392.179688 1862.28125 391.578125 C 1862.910156 390.980469 1863.148438 390.078125 1862.910156 389.238281 C 1857.78125 372.21875 1844.808594 360.058594 1831.601562 352.96875 C 1825 349.429688 1818.339844 347.140625 1812.421875 346.148438 Z M 1811.660156 350.769531 C 1816.980469 351.648438 1823.210938 353.789062 1829.398438 357.109375 C 1839.910156 362.75 1849.28125 372.460938 1854.988281 384.589844 C 1824.539062 372.609375 1811.28125 362.089844 1803.488281 351.320312 C 1805.871094 350.859375 1808.03125 350.171875 1811.660156 350.769531 "/>
  <path d="M 1805.671875 309.679688 C 1800.230469 308.761719 1795.449219 308.941406 1791.890625 310.921875 C 1791.320312 311.230469 1790.910156 311.769531 1790.761719 312.390625 C 1790.601562 313.019531 1790.710938 313.679688 1791.058594 314.230469 C 1799.191406 326.828125 1811.648438 338.988281 1848.820312 352.730469 C 1849.648438 353.03125 1850.578125 352.839844 1851.21875 352.238281 C 1851.859375 351.628906 1852.101562 350.71875 1851.851562 349.871094 C 1847.160156 333.988281 1835.300781 322.660156 1823.230469 316.050781 C 1817.199219 312.75 1811.101562 310.601562 1805.660156 309.679688 Z M 1804.910156 314.289062 C 1809.730469 315.109375 1815.378906 317.078125 1820.988281 320.148438 C 1830.390625 325.300781 1838.699219 334.171875 1843.929688 345.160156 C 1816.988281 334.238281 1804.929688 324.601562 1797.921875 314.78125 C 1800.011719 314.410156 1801.769531 313.761719 1804.910156 314.289062 "/>
  <path d="M 1889.570312 287.980469 C 1885.449219 287.589844 1880.769531 289.109375 1875.828125 291.839844 C 1870.878906 294.558594 1865.730469 298.601562 1861.121094 303.578125 C 1851.898438 313.550781 1844.730469 327.53125 1846.71875 342.808594 C 1846.828125 343.660156 1847.378906 344.371094 1848.171875 344.691406 C 1848.960938 345 1849.851562 344.859375 1850.511719 344.328125 C 1880.910156 319.421875 1888.859375 304.46875 1891.640625 290.769531 C 1891.769531 290.121094 1891.621094 289.449219 1891.230469 288.910156 C 1890.828125 288.378906 1890.230469 288.039062 1889.570312 287.980469 Z M 1885.300781 293.769531 C 1882.351562 304.5 1874.238281 317.078125 1852.230469 336.101562 C 1852.800781 325 1857.328125 314.539062 1864.53125 306.75 C 1868.808594 302.128906 1873.621094 298.390625 1878.070312 295.941406 C 1880.96875 294.339844 1883.03125 294.21875 1885.300781 293.769531 "/>
  <path d="M 1818.648438 254.191406 C 1818.011719 254.109375 1817.371094 254.300781 1816.871094 254.710938 C 1816.378906 255.121094 1816.070312 255.71875 1816.03125 256.359375 C 1815.179688 271.351562 1818.070312 288.519531 1840.011719 321.628906 C 1840.488281 322.378906 1841.351562 322.800781 1842.238281 322.691406 C 1843.128906 322.589844 1843.878906 321.988281 1844.171875 321.148438 C 1849.71875 305.550781 1846.828125 289.371094 1840.96875 276.890625 C 1838.039062 270.648438 1834.339844 265.28125 1830.5 261.320312 C 1826.660156 257.359375 1822.691406 254.699219 1818.648438 254.191406 Z M 1821.230469 260.839844 C 1823.140625 261.78125 1824.941406 262.308594 1827.160156 264.589844 C 1830.570312 268.109375 1834.011719 273.050781 1836.730469 278.851562 C 1841.300781 288.589844 1842.808594 300.691406 1840.558594 312.679688 C 1825.179688 287.851562 1821.121094 272.941406 1821.230469 260.839844 "/>
</g>
</svg>